<svg xmlns="http://www.w3.org/2000/svg" xmlns:v="https://svgstorm.com"
viewBox = "0 0 1000 1000"
width="1000"
height="1000">
<g fill="None" fill-opacity="0.0" stroke="#F9F9F9" stroke-opacity="1.00" stroke-width="0.3"><path d="
M 0.00 1000.00 
L 1000.00 1000.00
L 1000.00 0.00
L 0.00 0.00
L 0.00 1000.00
M 639.00 157.00 
C 648.94 174.45 658.04 193.75 661.00 214.00
C 662.85 226.68 666.00 238.76 666.00 252.00
C 666.70 259.24 666.69 267.83 666.00 275.00
C 666.00 292.36 661.65 308.36 659.00 325.00
C 656.14 342.97 648.91 361.00 641.00 377.00
C 636.00 390.90 627.11 403.11 620.00 416.00
C 617.68 420.20 614.91 423.42 612.00 427.00
C 604.15 439.17 593.61 449.54 585.00 461.00
C 575.48 473.68 568.37 494.70 579.00 509.00
C 584.91 515.78 596.01 518.86 604.00 520.00
C 608.00 520.00 612.00 520.00 616.00 520.00
C 629.08 518.73 641.79 513.15 654.00 508.00
C 661.59 504.80 670.66 499.21 677.00 494.00
C 685.46 484.76 694.35 479.60 701.75 468.75 C 709.16 457.91 716.63 451.84 722.92 438.92 C 729.21 426.00 744.43 429.01 749.77 442.23 C 755.11 455.45 762.47 462.77 767.00 476.00
C 775.03 493.17 781.97 511.92 785.00 531.00
C 789.10 556.77 793.58 582.90 793.00 610.00 C 792.42 637.10 786.10 660.21 782.00 686.00
C 779.81 699.76 773.70 713.68 768.00 726.00
C 755.32 764.03 728.53 797.68 699.25 826.25 C 669.97 854.82 633.71 880.57 595.00 892.00
C 578.40 898.84 560.42 905.22 542.00 907.00
C 524.29 908.71 508.38 911.69 490.00 912.00 C 471.62 912.31 452.93 910.42 435.00 909.00
C 410.39 907.05 385.10 899.65 363.00 890.00
C 326.25 878.23 289.52 852.76 261.25 825.75 C 232.98 798.74 205.15 763.44 193.00 727.00
C 186.07 711.84 178.47 694.89 176.00 678.00
C 171.10 644.46 164.45 600.51 170.93 566.93 C 177.41 533.34 184.70 502.81 200.77 474.77 C 216.84 446.73 230.24 426.56 251.75 403.75 C 273.26 380.94 293.13 364.70 317.75 347.75 C 342.36 330.80 366.19 314.96 392.08 300.08 C 417.97 285.21 442.12 270.80 466.25 252.25 C 490.38 233.70 508.78 215.65 525.30 189.30 C 541.83 162.95 553.00 127.66 553.00 95.00
C 553.00 89.93 552.60 84.32 554.00 80.00
C 558.24 66.95 572.66 79.59 579.75 85.25 C 586.83 90.91 596.24 98.74 602.75 106.25 C 609.26 113.76 615.90 121.97 621.77 130.23 C 627.64 138.49 634.75 147.80 639.00 157.00 Z"/>
</g>
<g fill="None" fill-opacity="0.0" stroke="#1D95FF" stroke-opacity="1.00" stroke-width="0.3"><path d="
M 554.00 80.00 
C 553.17 84.48 553.38 91.05 553.00 95.00
C 553.00 127.66 541.83 162.95 525.30 189.30 C 508.78 215.65 490.38 233.70 466.25 252.25 C 442.12 270.80 417.97 285.21 392.08 300.08 C 366.19 314.96 342.36 330.80 317.75 347.75 C 293.13 364.70 273.26 380.94 251.75 403.75 C 230.24 426.56 216.84 446.73 200.77 474.77 C 184.70 502.81 177.41 533.34 170.93 566.93 C 164.45 600.51 171.10 644.46 176.00 678.00
C 180.19 694.39 187.57 710.70 193.00 727.00
C 205.15 763.44 232.98 798.74 261.25 825.75 C 289.52 852.76 326.25 878.23 363.00 890.00
C 386.61 897.56 410.71 904.89 435.00 909.00
C 452.93 910.42 471.62 912.31 490.00 912.00 C 508.38 911.69 524.29 908.71 542.00 907.00
C 559.69 903.21 577.38 897.20 595.00 892.00
C 633.71 880.57 669.97 854.82 699.25 826.25 C 728.53 797.68 755.32 764.03 768.00 726.00
C 772.41 712.76 778.42 699.19 782.00 686.00
C 786.10 660.21 792.42 637.10 793.00 610.00 C 793.58 582.90 789.10 556.77 785.00 531.00
C 780.02 512.63 773.25 494.26 767.00 476.00
C 762.47 462.77 755.11 455.45 749.77 442.23 C 744.43 429.01 729.21 426.00 722.92 438.92 C 716.63 451.84 709.16 457.91 701.75 468.75 C 694.35 479.60 685.46 484.76 677.00 494.00
C 669.60 502.08 659.59 507.15 650.00 512.00
C 654.35 512.84 655.28 514.95 653.00 519.00
C 656.88 516.72 655.75 518.38 654.10 521.10 C 652.45 523.82 659.18 524.60 653.00 525.00
C 654.02 528.90 653.54 532.95 657.00 535.00
C 654.23 534.08 653.10 537.19 651.00 538.00
C 652.84 539.75 652.59 545.42 649.00 543.00
C 651.25 545.81 648.97 549.22 653.00 552.00
C 648.69 552.66 644.78 558.62 647.00 564.00
C 640.39 563.36 646.37 572.84 639.00 571.00
C 646.05 572.24 638.74 575.14 637.70 577.71 C 636.66 580.29 634.64 585.28 635.00 587.00
C 634.43 591.15 633.04 585.66 632.00 585.00
C 630.88 587.40 628.88 590.84 632.00 593.00
C 627.00 593.68 624.76 599.58 626.00 605.00
C 620.65 601.95 622.04 615.04 617.00 609.00
C 619.20 613.21 617.00 615.27 617.00 620.00
C 612.37 618.14 611.61 627.47 610.00 632.00
C 606.33 633.25 603.25 634.75 603.80 639.25 C 604.36 643.74 596.74 644.45 601.00 649.00
C 598.23 651.04 597.22 650.76 596.00 648.00
C 597.69 653.03 589.51 652.63 592.00 657.00
C 595.14 656.58 596.50 654.10 597.00 659.00
C 592.23 658.00 592.77 660.49 588.00 661.00
C 590.79 662.95 584.95 664.78 592.00 665.00
C 589.39 666.05 591.63 668.00 590.00 670.00
C 583.57 666.91 585.76 674.71 580.00 672.00
C 583.43 675.83 576.81 675.04 583.00 677.00
C 580.28 677.38 577.70 678.81 575.00 678.00
C 575.10 681.48 572.39 683.09 575.00 685.00
C 572.25 685.42 567.82 687.97 570.00 691.00
C 569.31 690.94 564.27 690.76 565.43 693.77 C 566.59 696.77 562.65 700.85 565.00 701.00
C 562.26 704.48 562.65 698.43 560.00 699.00
C 559.89 702.63 559.07 704.56 556.00 706.00
C 556.19 708.46 559.74 708.72 558.00 711.00
C 552.43 708.14 553.85 720.24 549.00 715.00
C 553.02 717.57 549.14 726.36 546.00 722.00
C 545.50 725.51 544.35 726.34 543.00 723.00
C 546.15 729.56 542.55 729.62 539.00 735.00
C 536.76 725.85 531.74 742.47 533.00 747.00
C 530.99 746.48 530.67 743.03 527.00 745.00
C 527.99 748.64 524.24 748.91 522.00 750.00
C 527.52 749.75 520.10 754.64 527.00 755.00
C 524.32 757.48 523.57 759.41 520.00 757.00
C 522.75 761.13 518.89 762.34 516.00 760.00
C 519.28 763.41 512.12 764.89 515.00 768.00
C 512.63 770.63 512.49 768.58 510.00 768.00
C 509.53 771.32 509.51 774.30 509.00 778.00
C 503.87 774.54 502.43 784.17 503.00 789.00
C 501.80 782.60 494.49 789.04 498.00 793.00
C 494.16 792.25 493.51 795.99 490.00 792.00
C 487.27 794.75 489.27 799.05 493.00 799.00
C 491.31 800.92 486.77 798.86 489.00 803.00
C 486.10 802.10 484.94 805.92 482.00 805.00
C 482.26 810.11 478.36 816.79 474.00 812.00
C 473.67 814.40 473.55 817.87 471.00 819.00
C 477.86 823.31 468.87 831.50 465.00 826.00
C 463.73 829.10 467.35 830.43 462.00 830.00
C 460.20 835.02 460.87 835.37 464.00 839.00
C 462.10 839.83 460.37 839.61 458.00 840.00
C 460.89 842.09 458.37 847.48 455.00 847.00
C 458.99 848.39 455.42 851.33 454.00 856.00
C 449.24 844.83 453.24 861.85 445.00 859.00
C 448.93 864.18 444.95 866.82 447.00 871.00
C 442.85 866.31 440.52 874.19 446.00 874.00
C 443.00 873.56 439.35 876.00 444.00 877.00
C 444.25 879.34 440.55 880.09 439.00 879.00
C 442.29 884.48 439.35 887.72 443.00 893.00
C 423.18 880.78 405.82 861.55 394.00 842.00
C 387.59 831.75 381.37 821.55 377.00 810.00
C 363.08 773.20 363.84 723.75 378.98 688.98 C 394.11 654.20 410.76 627.08 435.25 600.25 C 459.73 573.42 481.24 550.33 508.75 528.75 C 536.27 507.18 558.76 481.41 585.00 461.00
C 593.61 449.54 604.15 439.17 612.00 427.00
C 614.49 423.15 617.53 419.56 620.00 416.00
C 627.11 403.11 636.00 390.90 641.00 377.00
C 647.19 359.79 654.29 342.39 659.00 325.00
C 661.65 308.36 666.00 292.36 666.00 275.00
C 666.00 267.33 666.00 259.67 666.00 252.00
C 666.00 238.76 662.85 226.68 661.00 214.00
C 655.99 194.39 647.57 175.54 639.00 157.00
C 634.75 147.80 627.64 138.49 621.77 130.23 C 615.90 121.97 609.26 113.76 602.75 106.25 C 596.24 98.74 586.83 90.91 579.75 85.25 C 572.66 79.59 558.24 66.95 554.00 80.00 Z"/>
</g>
<g fill="None" fill-opacity="0.0" stroke="#B5DAFD" stroke-opacity="1.00" stroke-width="0.3"><path d="
M 553.00 95.00 
C 553.38 91.05 553.17 84.48 554.00 80.00
C 552.60 84.32 553.00 89.93 553.00 95.00 Z"/>
</g>
<g fill="None" fill-opacity="0.0" stroke="#A1D1FE" stroke-opacity="1.00" stroke-width="0.3"><path d="
M 661.00 214.00 
C 658.04 193.75 648.94 174.45 639.00 157.00
C 647.57 175.54 655.99 194.39 661.00 214.00 Z"/>
</g>
<g fill="None" fill-opacity="0.0" stroke="#BBE0FF" stroke-opacity="1.00" stroke-width="0.3"><path d="
M 666.00 275.00 
C 666.69 267.83 666.70 259.24 666.00 252.00
C 666.00 259.67 666.00 267.33 666.00 275.00 Z"/>
</g>
<g fill="None" fill-opacity="0.0" stroke="#9DCAFE" stroke-opacity="1.00" stroke-width="0.3"><path d="
M 641.00 377.00 
C 648.91 361.00 656.14 342.97 659.00 325.00
C 654.29 342.39 647.19 359.79 641.00 377.00 Z"/>
</g>
<g fill="None" fill-opacity="0.0" stroke="#BDD9FE" stroke-opacity="1.00" stroke-width="0.3"><path d="
M 612.00 427.00 
C 614.91 423.42 617.68 420.20 620.00 416.00
C 617.53 419.56 614.49 423.15 612.00 427.00 Z"/>
</g>
<g fill="None" fill-opacity="0.0" stroke="#0264E0" stroke-opacity="1.00" stroke-width="0.3"><path d="
M 377.00 810.00 
C 376.02 805.31 375.29 797.64 375.35 792.30 C 375.41 786.96 377.70 781.75 376.00 778.00
C 380.73 777.23 378.14 774.62 380.97 770.97 C 383.79 767.32 384.27 766.33 383.00 764.00
C 388.16 764.19 384.51 758.26 390.00 759.00
C 388.86 756.89 387.60 752.46 392.00 754.00
C 391.48 749.66 395.35 746.15 393.00 742.00
C 396.68 742.47 396.27 737.10 401.00 739.00
C 402.32 736.46 400.98 734.53 399.00 733.00
C 401.83 732.39 405.38 728.99 403.00 726.00
C 410.09 726.17 408.17 716.98 415.00 717.00
C 413.33 715.91 409.47 714.88 412.00 712.00
C 416.70 715.12 418.33 704.40 422.70 701.70 C 427.06 699.00 426.37 689.80 432.00 692.00
C 431.31 689.36 430.96 686.24 435.00 687.00
C 435.10 683.96 435.86 679.77 440.00 681.00
C 434.92 677.92 444.82 675.63 442.00 672.00
C 444.42 672.04 444.72 674.12 447.00 673.00
C 448.50 668.55 443.61 672.66 444.00 669.00
C 445.79 667.08 447.87 665.41 450.00 668.00
C 450.28 664.52 450.54 662.21 451.00 659.00
C 454.21 659.99 455.08 656.15 457.75 654.74 C 460.42 653.32 463.44 648.99 462.00 646.00
C 469.61 644.35 470.85 632.64 479.00 632.00
C 471.72 629.15 491.06 623.31 485.00 618.00
C 488.26 618.36 490.76 614.06 494.00 617.00
C 494.99 611.39 499.79 608.33 500.00 601.00
C 504.50 600.13 515.13 591.09 512.00 588.00
C 519.57 589.63 521.04 579.17 526.19 576.75 C 531.34 574.32 537.49 562.45 540.00 568.00
C 541.92 562.23 539.37 563.41 537.00 561.00
C 539.76 560.25 543.08 561.70 542.00 557.00
C 544.67 557.16 550.38 554.21 547.00 552.00
C 549.66 548.99 560.17 542.99 552.00 543.00
C 554.86 541.48 558.36 542.21 561.00 540.00
C 559.48 537.58 560.63 534.94 564.00 535.00
C 565.41 530.12 567.49 522.06 571.00 523.00
C 570.42 517.03 576.21 513.91 580.00 512.00
C 581.79 516.34 588.76 516.87 592.00 520.00
C 595.13 521.02 599.35 521.26 602.00 520.00
C 593.67 520.32 583.99 515.71 579.00 509.00
C 568.37 494.70 575.48 473.68 585.00 461.00
C 558.76 481.41 536.27 507.18 508.75 528.75 C 481.24 550.33 459.73 573.42 435.25 600.25 C 410.76 627.08 394.11 654.20 378.98 688.98 C 363.84 723.75 363.08 773.20 377.00 810.00 Z"/>
</g>
<g fill="None" fill-opacity="0.0" stroke="#A8D5FE" stroke-opacity="1.00" stroke-width="0.3"><path d="
M 785.00 531.00 
C 781.97 511.92 775.03 493.17 767.00 476.00
C 773.25 494.26 780.02 512.63 785.00 531.00 Z"/>
</g>
<g fill="None" fill-opacity="0.0" stroke="#1081F6" stroke-opacity="1.00" stroke-width="0.3"><path d="
M 654.00 508.00 
C 642.41 514.60 629.98 520.00 616.00 520.00
C 612.00 520.00 608.00 520.00 604.00 520.00
C 603.50 520.00 602.50 519.98 602.00 520.00
C 599.35 521.26 595.13 521.02 592.00 520.00
C 594.54 522.15 595.52 524.56 596.00 528.00
C 593.52 528.30 592.42 533.16 591.69 535.70 C 590.96 538.24 585.14 541.33 589.00 544.00
C 585.89 542.97 584.23 545.69 582.00 547.00
C 586.43 547.28 582.96 548.88 584.00 552.00
C 581.11 551.03 579.63 555.54 577.00 553.00
C 582.00 556.62 575.61 560.33 573.25 563.26 C 570.88 566.20 570.54 575.83 565.00 575.00
C 564.05 577.24 569.98 575.97 566.88 577.90 C 563.78 579.83 565.27 581.34 567.00 583.00
C 564.28 583.63 562.59 580.93 560.00 581.00
C 558.75 585.18 556.12 588.54 553.81 592.25 C 551.49 595.95 542.69 600.64 549.00 604.00
C 544.98 602.92 545.93 608.38 543.00 605.00
C 543.38 609.59 542.49 618.88 537.00 612.00
C 536.07 616.01 531.94 616.24 533.00 621.00
C 529.23 618.41 530.78 620.42 527.00 621.00
C 527.21 623.55 528.36 623.84 530.00 626.00
C 527.37 626.32 522.94 626.40 525.00 630.00
C 522.47 628.24 520.70 630.46 518.00 631.00
C 521.11 633.49 516.02 640.58 512.00 639.00
C 509.47 642.15 509.56 649.48 505.75 651.75 C 501.95 654.02 500.03 661.97 494.00 658.00
C 495.34 661.39 490.78 661.28 491.00 664.00
C 492.96 663.39 495.59 663.11 497.00 665.00
C 492.30 664.67 489.51 668.10 488.00 673.00
C 485.26 670.44 484.42 675.55 481.00 674.00
C 484.86 676.01 478.55 680.79 481.00 684.00
C 478.47 684.29 476.97 685.05 475.00 683.00
C 474.31 685.62 472.34 687.15 474.00 690.00
C 469.90 688.16 469.52 693.53 465.00 695.00
C 468.47 698.35 464.05 701.28 460.00 702.00
C 467.94 701.15 461.78 706.66 457.00 708.00
C 459.53 711.67 458.83 713.13 454.00 713.00
C 461.61 716.45 452.31 717.85 449.00 719.00
C 449.48 721.33 448.19 721.98 450.00 725.00
C 445.97 726.09 444.25 725.57 441.00 728.00
C 444.72 730.01 440.54 737.35 436.00 739.00
C 436.72 736.56 437.64 735.35 438.00 733.00
C 435.04 735.94 430.26 740.06 433.00 744.00
C 426.78 744.04 428.61 749.54 423.00 750.00
C 426.42 751.59 421.11 753.03 425.00 755.00
C 421.44 755.60 418.14 759.46 420.00 764.00
C 415.31 759.26 412.66 770.24 415.00 774.00
C 411.18 772.91 409.91 777.62 412.00 780.00
C 409.21 780.91 407.78 782.43 404.77 784.77 C 401.76 787.11 409.10 793.43 401.00 791.00
C 409.74 794.09 396.54 797.22 400.00 804.00
C 393.51 803.45 397.39 812.27 392.00 814.00
C 394.07 814.65 394.36 821.36 390.00 819.00
C 391.16 822.99 391.50 825.24 390.91 829.10 C 390.31 832.97 391.90 838.39 394.00 842.00
C 405.82 861.55 423.18 880.78 443.00 893.00
C 439.35 887.72 442.29 884.48 439.00 879.00
C 440.55 880.09 444.25 879.34 444.00 877.00
C 439.35 876.00 443.00 873.56 446.00 874.00
C 440.52 874.19 442.85 866.31 447.00 871.00
C 444.95 866.82 448.93 864.18 445.00 859.00
C 453.24 861.85 449.24 844.83 454.00 856.00
C 455.42 851.33 458.99 848.39 455.00 847.00
C 458.37 847.48 460.89 842.09 458.00 840.00
C 460.37 839.61 462.10 839.83 464.00 839.00
C 460.87 835.37 460.20 835.02 462.00 830.00
C 467.35 830.43 463.73 829.10 465.00 826.00
C 468.87 831.50 477.86 823.31 471.00 819.00
C 473.55 817.87 473.67 814.40 474.00 812.00
C 478.36 816.79 482.26 810.11 482.00 805.00
C 484.94 805.92 486.10 802.10 489.00 803.00
C 486.77 798.86 491.31 800.92 493.00 799.00
C 489.27 799.05 487.27 794.75 490.00 792.00
C 493.51 795.99 494.16 792.25 498.00 793.00
C 494.49 789.04 501.80 782.60 503.00 789.00
C 502.43 784.17 503.87 774.54 509.00 778.00
C 509.51 774.30 509.53 771.32 510.00 768.00
C 512.49 768.58 512.63 770.63 515.00 768.00
C 512.12 764.89 519.28 763.41 516.00 760.00
C 518.89 762.34 522.75 761.13 520.00 757.00
C 523.57 759.41 524.32 757.48 527.00 755.00
C 520.10 754.64 527.52 749.75 522.00 750.00
C 524.24 748.91 527.99 748.64 527.00 745.00
C 530.67 743.03 530.99 746.48 533.00 747.00
C 531.74 742.47 536.76 725.85 539.00 735.00
C 542.55 729.62 546.15 729.56 543.00 723.00
C 544.35 726.34 545.50 725.51 546.00 722.00
C 549.14 726.36 553.02 717.57 549.00 715.00
C 553.85 720.24 552.43 708.14 558.00 711.00
C 559.74 708.72 556.19 708.46 556.00 706.00
C 559.07 704.56 559.89 702.63 560.00 699.00
C 562.65 698.43 562.26 704.48 565.00 701.00
C 562.65 700.85 566.59 696.77 565.43 693.77 C 564.27 690.76 569.31 690.94 570.00 691.00
C 567.82 687.97 572.25 685.42 575.00 685.00
C 572.39 683.09 575.10 681.48 575.00 678.00
C 577.70 678.81 580.28 677.38 583.00 677.00
C 576.81 675.04 583.43 675.83 580.00 672.00
C 585.76 674.71 583.57 666.91 590.00 670.00
C 591.63 668.00 589.39 666.05 592.00 665.00
C 584.95 664.78 590.79 662.95 588.00 661.00
C 592.77 660.49 592.23 658.00 597.00 659.00
C 596.50 654.10 595.14 656.58 592.00 657.00
C 589.51 652.63 597.69 653.03 596.00 648.00
C 597.22 650.76 598.23 651.04 601.00 649.00
C 596.74 644.45 604.36 643.74 603.80 639.25 C 603.25 634.75 606.33 633.25 610.00 632.00
C 611.61 627.47 612.37 618.14 617.00 620.00
C 617.00 615.27 619.20 613.21 617.00 609.00
C 622.04 615.04 620.65 601.95 626.00 605.00
C 624.76 599.58 627.00 593.68 632.00 593.00
C 628.88 590.84 630.88 587.40 632.00 585.00
C 633.04 585.66 634.43 591.15 635.00 587.00
C 634.64 585.28 636.66 580.29 637.70 577.71 C 638.74 575.14 646.05 572.24 639.00 571.00
C 646.37 572.84 640.39 563.36 647.00 564.00
C 644.78 558.62 648.69 552.66 653.00 552.00
C 648.97 549.22 651.25 545.81 649.00 543.00
C 652.59 545.42 652.84 539.75 651.00 538.00
C 653.10 537.19 654.23 534.08 657.00 535.00
C 653.54 532.95 654.02 528.90 653.00 525.00
C 659.18 524.60 652.45 523.82 654.10 521.10 C 655.75 518.38 656.88 516.72 653.00 519.00
C 655.28 514.95 654.35 512.84 650.00 512.00
C 659.59 507.15 669.60 502.08 677.00 494.00
C 670.66 499.21 661.59 504.80 654.00 508.00 Z"/>
</g>
<g fill="None" fill-opacity="0.0" stroke="#A1C8FC" stroke-opacity="1.00" stroke-width="0.3"><path d="
M 616.00 520.00 
C 629.98 520.00 642.41 514.60 654.00 508.00
C 641.79 513.15 629.08 518.73 616.00 520.00 Z"/>
</g>
<g fill="None" fill-opacity="0.0" stroke="#99BEF7" stroke-opacity="1.00" stroke-width="0.3"><path d="
M 602.00 520.00 
C 602.50 519.98 603.50 520.00 604.00 520.00
C 596.01 518.86 584.91 515.78 579.00 509.00
C 583.99 515.71 593.67 520.32 602.00 520.00 Z"/>
</g>
<g fill="None" fill-opacity="0.0" stroke="#0872EB" stroke-opacity="1.00" stroke-width="0.3"><path d="
M 377.00 810.00 
C 381.37 821.55 387.59 831.75 394.00 842.00
C 391.90 838.39 390.31 832.97 390.91 829.10 C 391.50 825.24 391.16 822.99 390.00 819.00
C 394.36 821.36 394.07 814.65 392.00 814.00
C 397.39 812.27 393.51 803.45 400.00 804.00
C 396.54 797.22 409.74 794.09 401.00 791.00
C 409.10 793.43 401.76 787.11 404.77 784.77 C 407.78 782.43 409.21 780.91 412.00 780.00
C 409.91 777.62 411.18 772.91 415.00 774.00
C 412.66 770.24 415.31 759.26 420.00 764.00
C 418.14 759.46 421.44 755.60 425.00 755.00
C 421.11 753.03 426.42 751.59 423.00 750.00
C 428.61 749.54 426.78 744.04 433.00 744.00
C 430.26 740.06 435.04 735.94 438.00 733.00
C 437.64 735.35 436.72 736.56 436.00 739.00
C 440.54 737.35 444.72 730.01 441.00 728.00
C 444.25 725.57 445.97 726.09 450.00 725.00
C 448.19 721.98 449.48 721.33 449.00 719.00
C 452.31 717.85 461.61 716.45 454.00 713.00
C 458.83 713.13 459.53 711.67 457.00 708.00
C 461.78 706.66 467.94 701.15 460.00 702.00
C 464.05 701.28 468.47 698.35 465.00 695.00
C 469.52 693.53 469.90 688.16 474.00 690.00
C 472.34 687.15 474.31 685.62 475.00 683.00
C 476.97 685.05 478.47 684.29 481.00 684.00
C 478.55 680.79 484.86 676.01 481.00 674.00
C 484.42 675.55 485.26 670.44 488.00 673.00
C 489.51 668.10 492.30 664.67 497.00 665.00
C 495.59 663.11 492.96 663.39 491.00 664.00
C 490.78 661.28 495.34 661.39 494.00 658.00
C 500.03 661.97 501.95 654.02 505.75 651.75 C 509.56 649.48 509.47 642.15 512.00 639.00
C 516.02 640.58 521.11 633.49 518.00 631.00
C 520.70 630.46 522.47 628.24 525.00 630.00
C 522.94 626.40 527.37 626.32 530.00 626.00
C 528.36 623.84 527.21 623.55 527.00 621.00
C 530.78 620.42 529.23 618.41 533.00 621.00
C 531.94 616.24 536.07 616.01 537.00 612.00
C 542.49 618.88 543.38 609.59 543.00 605.00
C 545.93 608.38 544.98 602.92 549.00 604.00
C 542.69 600.64 551.49 595.95 553.81 592.25 C 556.12 588.54 558.75 585.18 560.00 581.00
C 562.59 580.93 564.28 583.63 567.00 583.00
C 565.27 581.34 563.78 579.83 566.88 577.90 C 569.98 575.97 564.05 577.24 565.00 575.00
C 570.54 575.83 570.88 566.20 573.25 563.26 C 575.61 560.33 582.00 556.62 577.00 553.00
C 579.63 555.54 581.11 551.03 584.00 552.00
C 582.96 548.88 586.43 547.28 582.00 547.00
C 584.23 545.69 585.89 542.97 589.00 544.00
C 585.14 541.33 590.96 538.24 591.69 535.70 C 592.42 533.16 593.52 528.30 596.00 528.00
C 595.52 524.56 594.54 522.15 592.00 520.00
C 588.76 516.87 581.79 516.34 580.00 512.00
C 576.21 513.91 570.42 517.03 571.00 523.00
C 567.49 522.06 565.41 530.12 564.00 535.00
C 560.63 534.94 559.48 537.58 561.00 540.00
C 558.36 542.21 554.86 541.48 552.00 543.00
C 560.17 542.99 549.66 548.99 547.00 552.00
C 550.38 554.21 544.67 557.16 542.00 557.00
C 543.08 561.70 539.76 560.25 537.00 561.00
C 539.37 563.41 541.92 562.23 540.00 568.00
C 537.49 562.45 531.34 574.32 526.19 576.75 C 521.04 579.17 519.57 589.63 512.00 588.00
C 515.13 591.09 504.50 600.13 500.00 601.00
C 499.79 608.33 494.99 611.39 494.00 617.00
C 490.76 614.06 488.26 618.36 485.00 618.00
C 491.06 623.31 471.72 629.15 479.00 632.00
C 470.85 632.64 469.61 644.35 462.00 646.00
C 463.44 648.99 460.42 653.32 457.75 654.74 C 455.08 656.15 454.21 659.99 451.00 659.00
C 450.54 662.21 450.28 664.52 450.00 668.00
C 447.87 665.41 445.79 667.08 444.00 669.00
C 443.61 672.66 448.50 668.55 447.00 673.00
C 444.72 674.12 444.42 672.04 442.00 672.00
C 444.82 675.63 434.92 677.92 440.00 681.00
C 435.86 679.77 435.10 683.96 435.00 687.00
C 430.96 686.24 431.31 689.36 432.00 692.00
C 426.37 689.80 427.06 699.00 422.70 701.70 C 418.33 704.40 416.70 715.12 412.00 712.00
C 409.47 714.88 413.33 715.91 415.00 717.00
C 408.17 716.98 410.09 726.17 403.00 726.00
C 405.38 728.99 401.83 732.39 399.00 733.00
C 400.98 734.53 402.32 736.46 401.00 739.00
C 396.27 737.10 396.68 742.47 393.00 742.00
C 395.35 746.15 391.48 749.66 392.00 754.00
C 387.60 752.46 388.86 756.89 390.00 759.00
C 384.51 758.26 388.16 764.19 383.00 764.00
C 384.27 766.33 383.79 767.32 380.97 770.97 C 378.14 774.62 380.73 777.23 376.00 778.00
C 377.70 781.75 375.41 786.96 375.35 792.30 C 375.29 797.64 376.02 805.31 377.00 810.00 Z"/>
</g>
<g fill="None" fill-opacity="0.0" stroke="#9ED0FE" stroke-opacity="1.00" stroke-width="0.3"><path d="
M 193.00 727.00 
C 187.57 710.70 180.19 694.39 176.00 678.00
C 178.47 694.89 186.07 711.84 193.00 727.00 Z"/>
</g>
<g fill="None" fill-opacity="0.0" stroke="#9CCFFD" stroke-opacity="1.00" stroke-width="0.3"><path d="
M 768.00 726.00 
C 773.70 713.68 779.81 699.76 782.00 686.00
C 778.42 699.19 772.41 712.76 768.00 726.00 Z"/>
</g>
<g fill="None" fill-opacity="0.0" stroke="#A4D2FE" stroke-opacity="1.00" stroke-width="0.3"><path d="
M 435.00 909.00 
C 410.71 904.89 386.61 897.56 363.00 890.00
C 385.10 899.65 410.39 907.05 435.00 909.00 Z"/>
</g>
<g fill="None" fill-opacity="0.0" stroke="#A3D2FE" stroke-opacity="1.00" stroke-width="0.3"><path d="
M 542.00 907.00 
C 560.42 905.22 578.40 898.84 595.00 892.00
C 577.38 897.20 559.69 903.21 542.00 907.00 Z"/>
</g>
<g fill="#F9F9F9" fill-opacity="1.00" stroke="None">
<path d="
M 0.00 1000.00 
L 1000.00 1000.00
L 1000.00 0.00
L 0.00 0.00
L 0.00 1000.00
M 639.00 157.00 
C 648.94 174.45 658.04 193.75 661.00 214.00
C 662.85 226.68 666.00 238.76 666.00 252.00
C 666.70 259.24 666.69 267.83 666.00 275.00
C 666.00 292.36 661.65 308.36 659.00 325.00
C 656.14 342.97 648.91 361.00 641.00 377.00
C 636.00 390.90 627.11 403.11 620.00 416.00
C 617.68 420.20 614.91 423.42 612.00 427.00
C 604.15 439.17 593.61 449.54 585.00 461.00
C 575.48 473.68 568.37 494.70 579.00 509.00
C 584.91 515.78 596.01 518.86 604.00 520.00
C 608.00 520.00 612.00 520.00 616.00 520.00
C 629.08 518.73 641.79 513.15 654.00 508.00
C 661.59 504.80 670.66 499.21 677.00 494.00
C 685.46 484.76 694.35 479.60 701.75 468.75 C 709.16 457.91 716.63 451.84 722.92 438.92 C 729.21 426.00 744.43 429.01 749.77 442.23 C 755.11 455.45 762.47 462.77 767.00 476.00
C 775.03 493.17 781.97 511.92 785.00 531.00
C 789.10 556.77 793.58 582.90 793.00 610.00 C 792.42 637.10 786.10 660.21 782.00 686.00
C 779.81 699.76 773.70 713.68 768.00 726.00
C 755.32 764.03 728.53 797.68 699.25 826.25 C 669.97 854.82 633.71 880.57 595.00 892.00
C 578.40 898.84 560.42 905.22 542.00 907.00
C 524.29 908.71 508.38 911.69 490.00 912.00 C 471.62 912.31 452.93 910.42 435.00 909.00
C 410.39 907.05 385.10 899.65 363.00 890.00
C 326.25 878.23 289.52 852.76 261.25 825.75 C 232.98 798.74 205.15 763.44 193.00 727.00
C 186.07 711.84 178.47 694.89 176.00 678.00
C 171.10 644.46 164.45 600.51 170.93 566.93 C 177.41 533.34 184.70 502.81 200.77 474.77 C 216.84 446.73 230.24 426.56 251.75 403.75 C 273.26 380.94 293.13 364.70 317.75 347.75 C 342.36 330.80 366.19 314.96 392.08 300.08 C 417.97 285.21 442.12 270.80 466.25 252.25 C 490.38 233.70 508.78 215.65 525.30 189.30 C 541.83 162.95 553.00 127.66 553.00 95.00
C 553.00 89.93 552.60 84.32 554.00 80.00
C 558.24 66.95 572.66 79.59 579.75 85.25 C 586.83 90.91 596.24 98.74 602.75 106.25 C 609.26 113.76 615.90 121.97 621.77 130.23 C 627.64 138.49 634.75 147.80 639.00 157.00 Z"/>
</g>
<g fill="#1D95FF" fill-opacity="1.00" stroke="None">
<path d="
M 554.00 80.00 
C 553.17 84.48 553.38 91.05 553.00 95.00
C 553.00 127.66 541.83 162.95 525.30 189.30 C 508.78 215.65 490.38 233.70 466.25 252.25 C 442.12 270.80 417.97 285.21 392.08 300.08 C 366.19 314.96 342.36 330.80 317.75 347.75 C 293.13 364.70 273.26 380.94 251.75 403.75 C 230.24 426.56 216.84 446.73 200.77 474.77 C 184.70 502.81 177.41 533.34 170.93 566.93 C 164.45 600.51 171.10 644.46 176.00 678.00
C 180.19 694.39 187.57 710.70 193.00 727.00
C 205.15 763.44 232.98 798.74 261.25 825.75 C 289.52 852.76 326.25 878.23 363.00 890.00
C 386.61 897.56 410.71 904.89 435.00 909.00
C 452.93 910.42 471.62 912.31 490.00 912.00 C 508.38 911.69 524.29 908.71 542.00 907.00
C 559.69 903.21 577.38 897.20 595.00 892.00
C 633.71 880.57 669.97 854.82 699.25 826.25 C 728.53 797.68 755.32 764.03 768.00 726.00
C 772.41 712.76 778.42 699.19 782.00 686.00
C 786.10 660.21 792.42 637.10 793.00 610.00 C 793.58 582.90 789.10 556.77 785.00 531.00
C 780.02 512.63 773.25 494.26 767.00 476.00
C 762.47 462.77 755.11 455.45 749.77 442.23 C 744.43 429.01 729.21 426.00 722.92 438.92 C 716.63 451.84 709.16 457.91 701.75 468.75 C 694.35 479.60 685.46 484.76 677.00 494.00
C 669.60 502.08 659.59 507.15 650.00 512.00
C 654.35 512.84 655.28 514.95 653.00 519.00
C 656.88 516.72 655.75 518.38 654.10 521.10 C 652.45 523.82 659.18 524.60 653.00 525.00
C 654.02 528.90 653.54 532.95 657.00 535.00
C 654.23 534.08 653.10 537.19 651.00 538.00
C 652.84 539.75 652.59 545.42 649.00 543.00
C 651.25 545.81 648.97 549.22 653.00 552.00
C 648.69 552.66 644.78 558.62 647.00 564.00
C 640.39 563.36 646.37 572.84 639.00 571.00
C 646.05 572.24 638.74 575.14 637.70 577.71 C 636.66 580.29 634.64 585.28 635.00 587.00
C 634.43 591.15 633.04 585.66 632.00 585.00
C 630.88 587.40 628.88 590.84 632.00 593.00
C 627.00 593.68 624.76 599.58 626.00 605.00
C 620.65 601.95 622.04 615.04 617.00 609.00
C 619.20 613.21 617.00 615.27 617.00 620.00
C 612.37 618.14 611.61 627.47 610.00 632.00
C 606.33 633.25 603.25 634.75 603.80 639.25 C 604.36 643.74 596.74 644.45 601.00 649.00
C 598.23 651.04 597.22 650.76 596.00 648.00
C 597.69 653.03 589.51 652.63 592.00 657.00
C 595.14 656.58 596.50 654.10 597.00 659.00
C 592.23 658.00 592.77 660.49 588.00 661.00
C 590.79 662.95 584.95 664.78 592.00 665.00
C 589.39 666.05 591.63 668.00 590.00 670.00
C 583.57 666.91 585.76 674.71 580.00 672.00
C 583.43 675.83 576.81 675.04 583.00 677.00
C 580.28 677.38 577.70 678.81 575.00 678.00
C 575.10 681.48 572.39 683.09 575.00 685.00
C 572.25 685.42 567.82 687.97 570.00 691.00
C 569.31 690.94 564.27 690.76 565.43 693.77 C 566.59 696.77 562.65 700.85 565.00 701.00
C 562.26 704.48 562.65 698.43 560.00 699.00
C 559.89 702.63 559.07 704.56 556.00 706.00
C 556.19 708.46 559.74 708.72 558.00 711.00
C 552.43 708.14 553.85 720.24 549.00 715.00
C 553.02 717.57 549.14 726.36 546.00 722.00
C 545.50 725.51 544.35 726.34 543.00 723.00
C 546.15 729.56 542.55 729.62 539.00 735.00
C 536.76 725.85 531.74 742.47 533.00 747.00
C 530.99 746.48 530.67 743.03 527.00 745.00
C 527.99 748.64 524.24 748.91 522.00 750.00
C 527.52 749.75 520.10 754.64 527.00 755.00
C 524.32 757.48 523.57 759.41 520.00 757.00
C 522.75 761.13 518.89 762.34 516.00 760.00
C 519.28 763.41 512.12 764.89 515.00 768.00
C 512.63 770.63 512.49 768.58 510.00 768.00
C 509.53 771.32 509.51 774.30 509.00 778.00
C 503.87 774.54 502.43 784.17 503.00 789.00
C 501.80 782.60 494.49 789.04 498.00 793.00
C 494.16 792.25 493.51 795.99 490.00 792.00
C 487.27 794.75 489.27 799.05 493.00 799.00
C 491.31 800.92 486.77 798.86 489.00 803.00
C 486.10 802.10 484.94 805.92 482.00 805.00
C 482.26 810.11 478.36 816.79 474.00 812.00
C 473.67 814.40 473.55 817.87 471.00 819.00
C 477.86 823.31 468.87 831.50 465.00 826.00
C 463.73 829.10 467.35 830.43 462.00 830.00
C 460.20 835.02 460.87 835.37 464.00 839.00
C 462.10 839.83 460.37 839.61 458.00 840.00
C 460.89 842.09 458.37 847.48 455.00 847.00
C 458.99 848.39 455.42 851.33 454.00 856.00
C 449.24 844.83 453.24 861.85 445.00 859.00
C 448.93 864.18 444.95 866.82 447.00 871.00
C 442.85 866.31 440.52 874.19 446.00 874.00
C 443.00 873.56 439.35 876.00 444.00 877.00
C 444.25 879.34 440.55 880.09 439.00 879.00
C 442.29 884.48 439.35 887.72 443.00 893.00
C 423.18 880.78 405.82 861.55 394.00 842.00
C 387.59 831.75 381.37 821.55 377.00 810.00
C 363.08 773.20 363.84 723.75 378.98 688.98 C 394.11 654.20 410.76 627.08 435.25 600.25 C 459.73 573.42 481.24 550.33 508.75 528.75 C 536.27 507.18 558.76 481.41 585.00 461.00
C 593.61 449.54 604.15 439.17 612.00 427.00
C 614.49 423.15 617.53 419.56 620.00 416.00
C 627.11 403.11 636.00 390.90 641.00 377.00
C 647.19 359.79 654.29 342.39 659.00 325.00
C 661.65 308.36 666.00 292.36 666.00 275.00
C 666.00 267.33 666.00 259.67 666.00 252.00
C 666.00 238.76 662.85 226.68 661.00 214.00
C 655.99 194.39 647.57 175.54 639.00 157.00
C 634.75 147.80 627.64 138.49 621.77 130.23 C 615.90 121.97 609.26 113.76 602.75 106.25 C 596.24 98.74 586.83 90.91 579.75 85.25 C 572.66 79.59 558.24 66.95 554.00 80.00 Z"/>
</g>
<g fill="#B5DAFD" fill-opacity="1.00" stroke="None">
<path d="
M 553.00 95.00 
C 553.38 91.05 553.17 84.48 554.00 80.00
C 552.60 84.32 553.00 89.93 553.00 95.00 Z"/>
</g>
<g fill="#A1D1FE" fill-opacity="1.00" stroke="None">
<path d="
M 661.00 214.00 
C 658.04 193.75 648.94 174.45 639.00 157.00
C 647.57 175.54 655.99 194.39 661.00 214.00 Z"/>
</g>
<g fill="#BBE0FF" fill-opacity="1.00" stroke="None">
<path d="
M 666.00 275.00 
C 666.69 267.83 666.70 259.24 666.00 252.00
C 666.00 259.67 666.00 267.33 666.00 275.00 Z"/>
</g>
<g fill="#9DCAFE" fill-opacity="1.00" stroke="None">
<path d="
M 641.00 377.00 
C 648.91 361.00 656.14 342.97 659.00 325.00
C 654.29 342.39 647.19 359.79 641.00 377.00 Z"/>
</g>
<g fill="#BDD9FE" fill-opacity="1.00" stroke="None">
<path d="
M 612.00 427.00 
C 614.91 423.42 617.68 420.20 620.00 416.00
C 617.53 419.56 614.49 423.15 612.00 427.00 Z"/>
</g>
<g fill="#0264E0" fill-opacity="1.00" stroke="None">
<path d="
M 377.00 810.00 
C 376.02 805.31 375.29 797.64 375.35 792.30 C 375.41 786.96 377.70 781.75 376.00 778.00
C 380.73 777.23 378.14 774.62 380.97 770.97 C 383.79 767.32 384.27 766.33 383.00 764.00
C 388.16 764.19 384.51 758.26 390.00 759.00
C 388.86 756.89 387.60 752.46 392.00 754.00
C 391.48 749.66 395.35 746.15 393.00 742.00
C 396.68 742.47 396.27 737.10 401.00 739.00
C 402.32 736.46 400.98 734.53 399.00 733.00
C 401.83 732.39 405.38 728.99 403.00 726.00
C 410.09 726.17 408.17 716.98 415.00 717.00
C 413.33 715.91 409.47 714.88 412.00 712.00
C 416.70 715.12 418.33 704.40 422.70 701.70 C 427.06 699.00 426.37 689.80 432.00 692.00
C 431.31 689.36 430.96 686.24 435.00 687.00
C 435.10 683.96 435.86 679.77 440.00 681.00
C 434.92 677.92 444.82 675.63 442.00 672.00
C 444.42 672.04 444.72 674.12 447.00 673.00
C 448.50 668.55 443.61 672.66 444.00 669.00
C 445.79 667.08 447.87 665.41 450.00 668.00
C 450.28 664.52 450.54 662.21 451.00 659.00
C 454.21 659.99 455.08 656.15 457.75 654.74 C 460.42 653.32 463.44 648.99 462.00 646.00
C 469.61 644.35 470.85 632.64 479.00 632.00
C 471.72 629.15 491.06 623.31 485.00 618.00
C 488.26 618.36 490.76 614.06 494.00 617.00
C 494.99 611.39 499.79 608.33 500.00 601.00
C 504.50 600.13 515.13 591.09 512.00 588.00
C 519.57 589.63 521.04 579.17 526.19 576.75 C 531.34 574.32 537.49 562.45 540.00 568.00
C 541.92 562.23 539.37 563.41 537.00 561.00
C 539.76 560.25 543.08 561.70 542.00 557.00
C 544.67 557.16 550.38 554.21 547.00 552.00
C 549.66 548.99 560.17 542.99 552.00 543.00
C 554.86 541.48 558.36 542.21 561.00 540.00
C 559.48 537.58 560.63 534.94 564.00 535.00
C 565.41 530.12 567.49 522.06 571.00 523.00
C 570.42 517.03 576.21 513.91 580.00 512.00
C 581.79 516.34 588.76 516.87 592.00 520.00
C 595.13 521.02 599.35 521.26 602.00 520.00
C 593.67 520.32 583.99 515.71 579.00 509.00
C 568.37 494.70 575.48 473.68 585.00 461.00
C 558.76 481.41 536.27 507.18 508.75 528.75 C 481.24 550.33 459.73 573.42 435.25 600.25 C 410.76 627.08 394.11 654.20 378.98 688.98 C 363.84 723.75 363.08 773.20 377.00 810.00 Z"/>
</g>
<g fill="#A8D5FE" fill-opacity="1.00" stroke="None">
<path d="
M 785.00 531.00 
C 781.97 511.92 775.03 493.17 767.00 476.00
C 773.25 494.26 780.02 512.63 785.00 531.00 Z"/>
</g>
<g fill="#1081F6" fill-opacity="1.00" stroke="None">
<path d="
M 654.00 508.00 
C 642.41 514.60 629.98 520.00 616.00 520.00
C 612.00 520.00 608.00 520.00 604.00 520.00
C 603.50 520.00 602.50 519.98 602.00 520.00
C 599.35 521.26 595.13 521.02 592.00 520.00
C 594.54 522.15 595.52 524.56 596.00 528.00
C 593.52 528.30 592.42 533.16 591.69 535.70 C 590.96 538.24 585.14 541.33 589.00 544.00
C 585.89 542.97 584.23 545.69 582.00 547.00
C 586.43 547.28 582.96 548.88 584.00 552.00
C 581.11 551.03 579.63 555.54 577.00 553.00
C 582.00 556.62 575.61 560.33 573.25 563.26 C 570.88 566.20 570.54 575.83 565.00 575.00
C 564.05 577.24 569.98 575.97 566.88 577.90 C 563.78 579.83 565.27 581.34 567.00 583.00
C 564.28 583.63 562.59 580.93 560.00 581.00
C 558.75 585.18 556.12 588.54 553.81 592.25 C 551.49 595.95 542.69 600.64 549.00 604.00
C 544.98 602.92 545.93 608.38 543.00 605.00
C 543.38 609.59 542.49 618.88 537.00 612.00
C 536.07 616.01 531.94 616.24 533.00 621.00
C 529.23 618.41 530.78 620.42 527.00 621.00
C 527.21 623.55 528.36 623.84 530.00 626.00
C 527.37 626.32 522.94 626.40 525.00 630.00
C 522.47 628.24 520.70 630.46 518.00 631.00
C 521.11 633.49 516.02 640.58 512.00 639.00
C 509.47 642.15 509.56 649.48 505.75 651.75 C 501.95 654.02 500.03 661.97 494.00 658.00
C 495.34 661.39 490.78 661.28 491.00 664.00
C 492.96 663.39 495.59 663.11 497.00 665.00
C 492.30 664.67 489.51 668.10 488.00 673.00
C 485.26 670.44 484.42 675.55 481.00 674.00
C 484.86 676.01 478.55 680.79 481.00 684.00
C 478.47 684.29 476.97 685.05 475.00 683.00
C 474.31 685.62 472.34 687.15 474.00 690.00
C 469.90 688.16 469.52 693.53 465.00 695.00
C 468.47 698.35 464.05 701.28 460.00 702.00
C 467.94 701.15 461.78 706.66 457.00 708.00
C 459.53 711.67 458.83 713.13 454.00 713.00
C 461.61 716.45 452.31 717.85 449.00 719.00
C 449.48 721.33 448.19 721.98 450.00 725.00
C 445.97 726.09 444.25 725.57 441.00 728.00
C 444.72 730.01 440.54 737.35 436.00 739.00
C 436.72 736.56 437.64 735.35 438.00 733.00
C 435.04 735.94 430.26 740.06 433.00 744.00
C 426.78 744.04 428.61 749.54 423.00 750.00
C 426.42 751.59 421.11 753.03 425.00 755.00
C 421.44 755.60 418.14 759.46 420.00 764.00
C 415.31 759.26 412.66 770.24 415.00 774.00
C 411.18 772.91 409.91 777.62 412.00 780.00
C 409.21 780.91 407.78 782.43 404.77 784.77 C 401.76 787.11 409.10 793.43 401.00 791.00
C 409.74 794.09 396.54 797.22 400.00 804.00
C 393.51 803.45 397.39 812.27 392.00 814.00
C 394.07 814.65 394.36 821.36 390.00 819.00
C 391.16 822.99 391.50 825.24 390.91 829.10 C 390.31 832.97 391.90 838.39 394.00 842.00
C 405.82 861.55 423.18 880.78 443.00 893.00
C 439.35 887.72 442.29 884.48 439.00 879.00
C 440.55 880.09 444.25 879.34 444.00 877.00
C 439.35 876.00 443.00 873.56 446.00 874.00
C 440.52 874.19 442.85 866.31 447.00 871.00
C 444.95 866.82 448.93 864.18 445.00 859.00
C 453.24 861.85 449.24 844.83 454.00 856.00
C 455.42 851.33 458.99 848.39 455.00 847.00
C 458.37 847.48 460.89 842.09 458.00 840.00
C 460.37 839.61 462.10 839.83 464.00 839.00
C 460.87 835.37 460.20 835.02 462.00 830.00
C 467.35 830.43 463.73 829.10 465.00 826.00
C 468.87 831.50 477.86 823.31 471.00 819.00
C 473.55 817.87 473.67 814.40 474.00 812.00
C 478.36 816.79 482.26 810.11 482.00 805.00
C 484.94 805.92 486.10 802.10 489.00 803.00
C 486.77 798.86 491.31 800.92 493.00 799.00
C 489.27 799.05 487.27 794.75 490.00 792.00
C 493.51 795.99 494.16 792.25 498.00 793.00
C 494.49 789.04 501.80 782.60 503.00 789.00
C 502.43 784.17 503.87 774.54 509.00 778.00
C 509.51 774.30 509.53 771.32 510.00 768.00
C 512.49 768.58 512.63 770.63 515.00 768.00
C 512.12 764.89 519.28 763.41 516.00 760.00
C 518.89 762.34 522.75 761.13 520.00 757.00
C 523.57 759.41 524.32 757.48 527.00 755.00
C 520.10 754.64 527.52 749.75 522.00 750.00
C 524.24 748.91 527.99 748.64 527.00 745.00
C 530.67 743.03 530.99 746.48 533.00 747.00
C 531.74 742.47 536.76 725.85 539.00 735.00
C 542.55 729.62 546.15 729.56 543.00 723.00
C 544.35 726.34 545.50 725.51 546.00 722.00
C 549.14 726.36 553.02 717.57 549.00 715.00
C 553.85 720.24 552.43 708.14 558.00 711.00
C 559.74 708.72 556.19 708.46 556.00 706.00
C 559.07 704.56 559.89 702.63 560.00 699.00
C 562.65 698.43 562.26 704.48 565.00 701.00
C 562.65 700.85 566.59 696.77 565.43 693.77 C 564.27 690.76 569.31 690.94 570.00 691.00
C 567.82 687.97 572.25 685.42 575.00 685.00
C 572.39 683.09 575.10 681.48 575.00 678.00
C 577.70 678.81 580.28 677.38 583.00 677.00
C 576.81 675.04 583.43 675.83 580.00 672.00
C 585.76 674.71 583.57 666.91 590.00 670.00
C 591.63 668.00 589.39 666.05 592.00 665.00
C 584.95 664.78 590.79 662.95 588.00 661.00
C 592.77 660.49 592.23 658.00 597.00 659.00
C 596.50 654.10 595.14 656.58 592.00 657.00
C 589.51 652.63 597.69 653.03 596.00 648.00
C 597.22 650.76 598.23 651.04 601.00 649.00
C 596.74 644.45 604.36 643.74 603.80 639.25 C 603.25 634.75 606.33 633.25 610.00 632.00
C 611.61 627.47 612.37 618.14 617.00 620.00
C 617.00 615.27 619.20 613.21 617.00 609.00
C 622.04 615.04 620.65 601.95 626.00 605.00
C 624.76 599.58 627.00 593.68 632.00 593.00
C 628.88 590.84 630.88 587.40 632.00 585.00
C 633.04 585.66 634.43 591.15 635.00 587.00
C 634.64 585.28 636.66 580.29 637.70 577.71 C 638.74 575.14 646.05 572.24 639.00 571.00
C 646.37 572.84 640.39 563.36 647.00 564.00
C 644.78 558.62 648.69 552.66 653.00 552.00
C 648.97 549.22 651.25 545.81 649.00 543.00
C 652.59 545.42 652.84 539.75 651.00 538.00
C 653.10 537.19 654.23 534.08 657.00 535.00
C 653.54 532.95 654.02 528.90 653.00 525.00
C 659.18 524.60 652.45 523.82 654.10 521.10 C 655.75 518.38 656.88 516.72 653.00 519.00
C 655.28 514.95 654.35 512.84 650.00 512.00
C 659.59 507.15 669.60 502.08 677.00 494.00
C 670.66 499.21 661.59 504.80 654.00 508.00 Z"/>
</g>
<g fill="#A1C8FC" fill-opacity="1.00" stroke="None">
<path d="
M 616.00 520.00 
C 629.98 520.00 642.41 514.60 654.00 508.00
C 641.79 513.15 629.08 518.73 616.00 520.00 Z"/>
</g>
<g fill="#99BEF7" fill-opacity="1.00" stroke="None">
<path d="
M 602.00 520.00 
C 602.50 519.98 603.50 520.00 604.00 520.00
C 596.01 518.86 584.91 515.78 579.00 509.00
C 583.99 515.71 593.67 520.32 602.00 520.00 Z"/>
</g>
<g fill="#0872EB" fill-opacity="1.00" stroke="None">
<path d="
M 377.00 810.00 
C 381.37 821.55 387.59 831.75 394.00 842.00
C 391.90 838.39 390.31 832.97 390.91 829.10 C 391.50 825.24 391.16 822.99 390.00 819.00
C 394.36 821.36 394.07 814.65 392.00 814.00
C 397.39 812.27 393.51 803.45 400.00 804.00
C 396.54 797.22 409.74 794.09 401.00 791.00
C 409.10 793.43 401.76 787.11 404.77 784.77 C 407.78 782.43 409.21 780.91 412.00 780.00
C 409.91 777.62 411.18 772.91 415.00 774.00
C 412.66 770.24 415.31 759.26 420.00 764.00
C 418.14 759.46 421.44 755.60 425.00 755.00
C 421.11 753.03 426.42 751.59 423.00 750.00
C 428.61 749.54 426.78 744.04 433.00 744.00
C 430.26 740.06 435.04 735.94 438.00 733.00
C 437.64 735.35 436.72 736.56 436.00 739.00
C 440.54 737.35 444.72 730.01 441.00 728.00
C 444.25 725.57 445.97 726.09 450.00 725.00
C 448.19 721.98 449.48 721.33 449.00 719.00
C 452.31 717.85 461.61 716.45 454.00 713.00
C 458.83 713.13 459.53 711.67 457.00 708.00
C 461.78 706.66 467.94 701.15 460.00 702.00
C 464.05 701.28 468.47 698.35 465.00 695.00
C 469.52 693.53 469.90 688.16 474.00 690.00
C 472.34 687.15 474.31 685.62 475.00 683.00
C 476.97 685.05 478.47 684.29 481.00 684.00
C 478.55 680.79 484.86 676.01 481.00 674.00
C 484.42 675.55 485.26 670.44 488.00 673.00
C 489.51 668.10 492.30 664.67 497.00 665.00
C 495.59 663.11 492.96 663.39 491.00 664.00
C 490.78 661.28 495.34 661.39 494.00 658.00
C 500.03 661.97 501.95 654.02 505.75 651.75 C 509.56 649.48 509.47 642.15 512.00 639.00
C 516.02 640.58 521.11 633.49 518.00 631.00
C 520.70 630.46 522.47 628.24 525.00 630.00
C 522.94 626.40 527.37 626.32 530.00 626.00
C 528.36 623.84 527.21 623.55 527.00 621.00
C 530.78 620.42 529.23 618.41 533.00 621.00
C 531.94 616.24 536.07 616.01 537.00 612.00
C 542.49 618.88 543.38 609.59 543.00 605.00
C 545.93 608.38 544.98 602.92 549.00 604.00
C 542.69 600.64 551.49 595.95 553.81 592.25 C 556.12 588.54 558.75 585.18 560.00 581.00
C 562.59 580.93 564.28 583.63 567.00 583.00
C 565.27 581.34 563.78 579.83 566.88 577.90 C 569.98 575.97 564.05 577.24 565.00 575.00
C 570.54 575.83 570.88 566.20 573.25 563.26 C 575.61 560.33 582.00 556.62 577.00 553.00
C 579.63 555.54 581.11 551.03 584.00 552.00
C 582.96 548.88 586.43 547.28 582.00 547.00
C 584.23 545.69 585.89 542.97 589.00 544.00
C 585.14 541.33 590.96 538.24 591.69 535.70 C 592.42 533.16 593.52 528.30 596.00 528.00
C 595.52 524.56 594.54 522.15 592.00 520.00
C 588.76 516.87 581.79 516.34 580.00 512.00
C 576.21 513.91 570.42 517.03 571.00 523.00
C 567.49 522.06 565.41 530.12 564.00 535.00
C 560.63 534.94 559.48 537.58 561.00 540.00
C 558.36 542.21 554.86 541.48 552.00 543.00
C 560.17 542.99 549.66 548.99 547.00 552.00
C 550.38 554.21 544.67 557.16 542.00 557.00
C 543.08 561.70 539.76 560.25 537.00 561.00
C 539.37 563.41 541.92 562.23 540.00 568.00
C 537.49 562.45 531.34 574.32 526.19 576.75 C 521.04 579.17 519.57 589.63 512.00 588.00
C 515.13 591.09 504.50 600.13 500.00 601.00
C 499.79 608.33 494.99 611.39 494.00 617.00
C 490.76 614.06 488.26 618.36 485.00 618.00
C 491.06 623.31 471.72 629.15 479.00 632.00
C 470.85 632.64 469.61 644.35 462.00 646.00
C 463.44 648.99 460.42 653.32 457.75 654.74 C 455.08 656.15 454.21 659.99 451.00 659.00
C 450.54 662.21 450.28 664.52 450.00 668.00
C 447.87 665.41 445.79 667.08 444.00 669.00
C 443.61 672.66 448.50 668.55 447.00 673.00
C 444.72 674.12 444.42 672.04 442.00 672.00
C 444.82 675.63 434.92 677.92 440.00 681.00
C 435.86 679.77 435.10 683.96 435.00 687.00
C 430.96 686.24 431.31 689.36 432.00 692.00
C 426.37 689.80 427.06 699.00 422.70 701.70 C 418.33 704.40 416.70 715.12 412.00 712.00
C 409.47 714.88 413.33 715.91 415.00 717.00
C 408.17 716.98 410.09 726.17 403.00 726.00
C 405.38 728.99 401.83 732.39 399.00 733.00
C 400.98 734.53 402.32 736.46 401.00 739.00
C 396.27 737.10 396.68 742.47 393.00 742.00
C 395.35 746.15 391.48 749.66 392.00 754.00
C 387.60 752.46 388.86 756.89 390.00 759.00
C 384.51 758.26 388.16 764.19 383.00 764.00
C 384.27 766.33 383.79 767.32 380.97 770.97 C 378.14 774.62 380.73 777.23 376.00 778.00
C 377.70 781.75 375.41 786.96 375.35 792.30 C 375.29 797.64 376.02 805.31 377.00 810.00 Z"/>
</g>
<g fill="#9ED0FE" fill-opacity="1.00" stroke="None">
<path d="
M 193.00 727.00 
C 187.57 710.70 180.19 694.39 176.00 678.00
C 178.47 694.89 186.07 711.84 193.00 727.00 Z"/>
</g>
<g fill="#9CCFFD" fill-opacity="1.00" stroke="None">
<path d="
M 768.00 726.00 
C 773.70 713.68 779.81 699.76 782.00 686.00
C 778.42 699.19 772.41 712.76 768.00 726.00 Z"/>
</g>
<g fill="#A4D2FE" fill-opacity="1.00" stroke="None">
<path d="
M 435.00 909.00 
C 410.71 904.89 386.61 897.56 363.00 890.00
C 385.10 899.65 410.39 907.05 435.00 909.00 Z"/>
</g>
<g fill="#A3D2FE" fill-opacity="1.00" stroke="None">
<path d="
M 542.00 907.00 
C 560.42 905.22 578.40 898.84 595.00 892.00
C 577.38 897.20 559.69 903.21 542.00 907.00 Z"/>
</g>
</svg>